<svg width="400" height="400" viewBox="0 0 128 128" xmlns="http://www.w3.org/2000/svg">
  <defs>
    <radialGradient id="bg-echo" cx="50%" cy="40%" r="60%">
      <stop offset="0%" stop-color="rgba(96,184,232,.18)"/>
      <stop offset="100%" stop-color="#060A07"/>
    </radialGradient>
    <filter id="glow-echo">
      <feGaussianBlur stdDeviation="3" result="coloredBlur"/>
      <feMerge><feMergeNode in="coloredBlur"/><feMergeNode in="SourceGraphic"/></feMerge>
    </filter>
    <filter id="softglow-echo">
      <feGaussianBlur stdDeviation="8" result="coloredBlur"/>
      <feMerge><feMergeNode in="coloredBlur"/><feMergeNode in="SourceGraphic"/></feMerge>
    </filter>
  </defs>

  <!-- Background -->
  <rect width="128" height="128" fill="#060A07"/>
  <rect width="128" height="128" fill="url(#bg-echo)"/>

  <!-- Dot grid -->
  <circle cx="5" cy="5" r=".6" fill="rgba(96,184,232,.08)"/><circle cx="23" cy="5" r=".6" fill="rgba(96,184,232,.08)"/><circle cx="41" cy="5" r=".6" fill="rgba(96,184,232,.08)"/><circle cx="59" cy="5" r=".6" fill="rgba(96,184,232,.08)"/><circle cx="77" cy="5" r=".6" fill="rgba(96,184,232,.08)"/><circle cx="95" cy="5" r=".6" fill="rgba(96,184,232,.08)"/><circle cx="113" cy="5" r=".6" fill="rgba(96,184,232,.08)"/><circle cx="131" cy="5" r=".6" fill="rgba(96,184,232,.08)"/><circle cx="5" cy="23" r=".6" fill="rgba(96,184,232,.08)"/><circle cx="23" cy="23" r=".6" fill="rgba(96,184,232,.08)"/><circle cx="41" cy="23" r=".6" fill="rgba(96,184,232,.08)"/><circle cx="59" cy="23" r=".6" fill="rgba(96,184,232,.08)"/><circle cx="77" cy="23" r=".6" fill="rgba(96,184,232,.08)"/><circle cx="95" cy="23" r=".6" fill="rgba(96,184,232,.08)"/><circle cx="113" cy="23" r=".6" fill="rgba(96,184,232,.08)"/><circle cx="131" cy="23" r=".6" fill="rgba(96,184,232,.08)"/><circle cx="5" cy="41" r=".6" fill="rgba(96,184,232,.08)"/><circle cx="23" cy="41" r=".6" fill="rgba(96,184,232,.08)"/><circle cx="41" cy="41" r=".6" fill="rgba(96,184,232,.08)"/><circle cx="59" cy="41" r=".6" fill="rgba(96,184,232,.08)"/><circle cx="77" cy="41" r=".6" fill="rgba(96,184,232,.08)"/><circle cx="95" cy="41" r=".6" fill="rgba(96,184,232,.08)"/><circle cx="113" cy="41" r=".6" fill="rgba(96,184,232,.08)"/><circle cx="131" cy="41" r=".6" fill="rgba(96,184,232,.08)"/><circle cx="5" cy="59" r=".6" fill="rgba(96,184,232,.08)"/><circle cx="23" cy="59" r=".6" fill="rgba(96,184,232,.08)"/><circle cx="41" cy="59" r=".6" fill="rgba(96,184,232,.08)"/><circle cx="59" cy="59" r=".6" fill="rgba(96,184,232,.08)"/><circle cx="77" cy="59" r=".6" fill="rgba(96,184,232,.08)"/><circle cx="95" cy="59" r=".6" fill="rgba(96,184,232,.08)"/><circle cx="113" cy="59" r=".6" fill="rgba(96,184,232,.08)"/><circle cx="131" cy="59" r=".6" fill="rgba(96,184,232,.08)"/><circle cx="5" cy="77" r=".6" fill="rgba(96,184,232,.08)"/><circle cx="23" cy="77" r=".6" fill="rgba(96,184,232,.08)"/><circle cx="41" cy="77" r=".6" fill="rgba(96,184,232,.08)"/><circle cx="59" cy="77" r=".6" fill="rgba(96,184,232,.08)"/><circle cx="77" cy="77" r=".6" fill="rgba(96,184,232,.08)"/><circle cx="95" cy="77" r=".6" fill="rgba(96,184,232,.08)"/><circle cx="113" cy="77" r=".6" fill="rgba(96,184,232,.08)"/><circle cx="131" cy="77" r=".6" fill="rgba(96,184,232,.08)"/><circle cx="5" cy="95" r=".6" fill="rgba(96,184,232,.08)"/><circle cx="23" cy="95" r=".6" fill="rgba(96,184,232,.08)"/><circle cx="41" cy="95" r=".6" fill="rgba(96,184,232,.08)"/><circle cx="59" cy="95" r=".6" fill="rgba(96,184,232,.08)"/><circle cx="77" cy="95" r=".6" fill="rgba(96,184,232,.08)"/><circle cx="95" cy="95" r=".6" fill="rgba(96,184,232,.08)"/><circle cx="113" cy="95" r=".6" fill="rgba(96,184,232,.08)"/><circle cx="131" cy="95" r=".6" fill="rgba(96,184,232,.08)"/><circle cx="5" cy="113" r=".6" fill="rgba(96,184,232,.08)"/><circle cx="23" cy="113" r=".6" fill="rgba(96,184,232,.08)"/><circle cx="41" cy="113" r=".6" fill="rgba(96,184,232,.08)"/><circle cx="59" cy="113" r=".6" fill="rgba(96,184,232,.08)"/><circle cx="77" cy="113" r=".6" fill="rgba(96,184,232,.08)"/><circle cx="95" cy="113" r=".6" fill="rgba(96,184,232,.08)"/><circle cx="113" cy="113" r=".6" fill="rgba(96,184,232,.08)"/><circle cx="131" cy="113" r=".6" fill="rgba(96,184,232,.08)"/><circle cx="5" cy="131" r=".6" fill="rgba(96,184,232,.08)"/><circle cx="23" cy="131" r=".6" fill="rgba(96,184,232,.08)"/><circle cx="41" cy="131" r=".6" fill="rgba(96,184,232,.08)"/><circle cx="59" cy="131" r=".6" fill="rgba(96,184,232,.08)"/><circle cx="77" cy="131" r=".6" fill="rgba(96,184,232,.08)"/><circle cx="95" cy="131" r=".6" fill="rgba(96,184,232,.08)"/><circle cx="113" cy="131" r=".6" fill="rgba(96,184,232,.08)"/><circle cx="131" cy="131" r=".6" fill="rgba(96,184,232,.08)"/>

  <!-- Outer hex ring -->
  <polygon points="64,8 112,34 112,86 64,112 16,86 16,34"
    fill="none" stroke="rgba(96,184,232,.15)" stroke-width=".8"/>

  <!-- Middle hex ring -->
  <polygon points="64,18 104,40 104,82 64,104 24,82 24,40"
    fill="none" stroke="rgba(96,184,232,.25)" stroke-width=".6"/>

  <!-- Inner hex frame -->
  <polygon points="64,26 98,44 98,80 64,98 30,80 30,44"
    fill="rgba(96,184,232,.04)" stroke="#60B8E8" stroke-width="1.2"/>

  <!-- Glow centre -->
  <circle cx="64" cy="64" r="34" fill="rgba(96,184,232,.06)" filter="url(#softglow-echo)"/>

  <!-- Role icon -->
  <g filter="url(#glow-echo)" transform="translate(0,0)">
    <circle cx="64" cy="64" r="28" fill="none" stroke="rgba(96,184,232,.3)" stroke-width="1.5"/>
           <circle cx="64" cy="64" r="18" fill="none" stroke="rgba(96,184,232,.5)" stroke-width="1"/>
           <circle cx="64" cy="64" r="6" fill="rgba(96,184,232,.8)"/>
           <line x1="92.0" y1="64.0" x2="100.0" y2="64.0" stroke="rgba(96,184,232,.4)" stroke-width="1"/><line x1="78.0" y1="88.2" x2="82.0" y2="95.2" stroke="rgba(96,184,232,.4)" stroke-width="1"/><line x1="50.0" y1="88.2" x2="46.0" y2="95.2" stroke="rgba(96,184,232,.4)" stroke-width="1"/><line x1="36.0" y1="64.0" x2="28.0" y2="64.0" stroke="rgba(96,184,232,.4)" stroke-width="1"/><line x1="50.0" y1="39.8" x2="46.0" y2="32.8" stroke="rgba(96,184,232,.4)" stroke-width="1"/><line x1="78.0" y1="39.8" x2="82.0" y2="32.8" stroke="rgba(96,184,232,.4)" stroke-width="1"/>
  </g>

  <!-- Initial letter -->
  <text x="64" y="72" text-anchor="middle" dominant-baseline="middle"
    font-family="Syne, sans-serif" font-weight="800" font-size="52"
    fill="#60B8E8" opacity=".12" letter-spacing="-2">E</text>

  <!-- Corner scan lines -->
  <line x1="0" y1="0" x2="20" y2="0" stroke="rgba(96,184,232,.3)" stroke-width=".5"/>
  <line x1="0" y1="0" x2="0" y2="20" stroke="rgba(96,184,232,.3)" stroke-width=".5"/>
  <line x1="128" y1="0" x2="108" y2="0" stroke="rgba(96,184,232,.3)" stroke-width=".5"/>
  <line x1="128" y1="0" x2="128" y2="20" stroke="rgba(96,184,232,.3)" stroke-width=".5"/>
  <line x1="0" y1="128" x2="20" y2="128" stroke="rgba(96,184,232,.3)" stroke-width=".5"/>
  <line x1="0" y1="128" x2="0" y2="108" stroke="rgba(96,184,232,.3)" stroke-width=".5"/>
  <line x1="128" y1="128" x2="108" y2="128" stroke="rgba(96,184,232,.3)" stroke-width=".5"/>
  <line x1="128" y1="128" x2="128" y2="108" stroke="rgba(96,184,232,.3)" stroke-width=".5"/>

  <!-- Label at bottom -->
  <rect x="28" y="107" width="72" height="14" rx="2"
    fill="rgba(96,184,232,.08)" stroke="rgba(96,184,232,.2)" stroke-width=".5"/>
  <text x="64" y="115" text-anchor="middle" dominant-baseline="middle"
    font-family="Syne, sans-serif" font-weight="700" font-size="5.5"
    fill="#60B8E8" letter-spacing="2">MEMORY</text>
</svg>